<?xml version="1.0" encoding="UTF-8" standalone="no"?>
<svg
   id="svg-badge"
   height="12.000001pt"
   width="48.342545pt"
   viewBox="0 0 64.456726 16.000001"
   version="1.1"
   sodipodi:docname="codeberg-nobg.svg"
   inkscape:version="1.4.4 (unknown)"
   xmlns:inkscape="http://www.inkscape.org/namespaces/inkscape"
   xmlns:sodipodi="http://sodipodi.sourceforge.net/DTD/sodipodi-0.dtd"
   xmlns:xlink="http://www.w3.org/1999/xlink"
   xmlns="http://www.w3.org/2000/svg"
   xmlns:svg="http://www.w3.org/2000/svg">
  <sodipodi:namedview
     id="namedview5"
     pagecolor="#ffffff"
     bordercolor="#000000"
     borderopacity="0.25"
     inkscape:showpageshadow="2"
     inkscape:pageopacity="0.0"
     inkscape:pagecheckerboard="0"
     inkscape:deskcolor="#d1d1d1"
     inkscape:clip-to-page="false"
     inkscape:zoom="3.2304965"
     inkscape:cx="-63.457739"
     inkscape:cy="7.8935236"
     inkscape:window-width="1920"
     inkscape:window-height="1150"
     inkscape:window-x="0"
     inkscape:window-y="0"
     inkscape:window-maximized="1"
     inkscape:current-layer="svg-badge"
     inkscape:document-units="pt" />
  <defs
     id="defs3">
    <linearGradient
       xlink:href="#a"
       id="b"
       gradientUnits="userSpaceOnUse"
       x1="42519.285"
       y1="-7078.7891"
       x2="42575.336"
       y2="-6966.9312" />
    <linearGradient
       id="a">
      <stop
         offset="0"
         stop-color="#fff"
         stop-opacity="0"
         id="stop1" />
      <stop
         offset=".495"
         stop-color="#71c2ff"
         id="stop2" />
      <stop
         offset="1"
         stop-color="#39aaff"
         id="stop3" />
    </linearGradient>
  </defs>
  <path
     aria-label="Codeberg"
     d="m 23.683277,6.3530622 c -1.07255,0 -1.90921,0.354004 -2.51267,1.061886 -0.60942,0.707628 -0.91546,1.642251 -0.91546,2.8036138 0,0.892497 0.22382,1.66953 0.67007,2.3311 0.6169,0.923076 1.55736,1.384551 2.81681,1.384551 0.87638,0 1.63958,-0.319239 2.29011,-0.957716 l -0.59863,-0.911656 c -0.57986,0.361617 -1.08003,0.542426 -1.50281,0.542426 -0.64317,0 -1.15616,-0.242347 -1.53782,-0.726915 -0.36124,-0.461601 -0.54192,-1.015574 -0.54192,-1.66179 0,-0.7308478 0.15365,-1.3231388 0.45843,-1.7770008 0.35184,-0.530753 0.84935,-0.796066 1.49049,-0.796066 0.46313,0 0.97498,0.199714 1.53656,0.599904 l 0.60067,-0.957461 c -0.75179,-0.622997 -1.50281,-0.934876 -2.25383,-0.934876 z m 21.27833,0 -1.47908,0.819158 v 6.6234358 h 1.19791 l 0.11736,-0.51908 c 0.36073,0.438382 0.86839,0.657637 1.52641,0.657637 0.66461,0 1.2229,-0.196416 1.6779,-0.588739 0.57859,-0.515273 0.86916,-1.27302 0.86916,-2.272988 0,-0.776779 -0.19629,-1.3999028 -0.58798,-1.8692448 -0.44701,-0.530879 -1.06328,-0.796192 -1.85402,-0.796192 -0.28244,0 -0.54128,0.05304 -0.77462,0.161649 -0.29793,0.138303 -0.52987,0.330785 -0.69304,0.576812 z m -7.96129,0.02322 -1.48124,0.807866 v 1.673084 c -0.36733,-0.292339 -0.82106,-0.438382 -1.36044,-0.438382 -0.62554,0 -1.16225,0.203774 -1.60723,0.611577 -0.59534,0.546106 -0.89529,1.3230128 -0.89529,2.3308468 0,0.715368 0.18601,1.300173 0.55346,1.754035 0.43826,0.546105 1.07674,0.819158 1.91404,0.819158 0.29729,0 0.58645,-0.0656 0.86763,-0.196288 0.2832,-0.13069 0.48596,-0.296146 0.61221,-0.495987 l 0.21101,0.553719 h 1.18585 z m -8.32951,2.042568 c -0.76853,0 -1.39014,0.238287 -1.86747,0.715114 -0.52517,0.52314 -0.78744,1.2079288 -0.78744,2.0539868 0,0.746074 0.23537,1.377192 0.70458,1.892592 0.52454,0.569198 1.17647,0.853924 1.95033,0.853924 0.66677,0 1.24853,-0.223187 1.74883,-0.669309 0.6027,-0.530753 0.90404,-1.223282 0.90404,-2.077207 0,-0.730594 -0.20288,-1.3497838 -0.61005,-1.8576978 -0.48546,-0.607771 -1.16631,-0.911403 -2.04282,-0.911403 z m 11.64103,0 c -0.75977,0 -1.3848,0.246153 -1.88028,0.738461 -0.54737,0.538619 -0.82182,1.2192208 -0.82182,2.0423128 0,0.838699 0.24399,1.496208 0.72882,1.97329 0.50969,0.507533 1.21757,0.761553 2.12631,0.761553 0.84339,0 1.54861,-0.246153 2.11146,-0.738714 l -0.37608,-0.772973 c -0.55423,0.307818 -1.08612,0.461474 -1.59518,0.461474 -0.3606,0 -0.67273,-0.11521 -0.93906,-0.346137 -0.26024,-0.238541 -0.40527,-0.534687 -0.43356,-0.888311 h 3.66084 v -0.530752 c 0,-0.761681 -0.20302,-1.3811248 -0.61019,-1.8579528 -0.46858,-0.561712 -1.12723,-0.842251 -1.97126,-0.842251 z m 11.74217,0 c -0.75851,0 -1.38417,0.246153 -1.87826,0.738461 -0.54889,0.538619 -0.82119,1.2192208 -0.82119,2.0423128 0,0.838699 0.24197,1.496208 0.72743,1.97329 0.50753,0.507533 1.21617,0.761553 2.12567,0.761553 0.84479,0 1.54861,-0.246153 2.11286,-0.738714 l -0.37481,-0.772973 c -0.55689,0.307818 -1.08955,0.461474 -1.59721,0.461474 -0.35997,0 -0.67349,-0.11521 -0.9397,-0.346137 -0.25884,-0.238541 -0.40386,-0.534687 -0.43482,-0.888311 h 3.66413 v -0.530752 c 0,-0.761681 -0.20365,-1.3811248 -0.61081,-1.8579528 -0.47061,-0.561712 -1.1266,-0.842251 -1.97329,-0.842251 z m 5.73043,0 c -0.23321,0 -0.46592,0.06154 -0.69304,0.184615 -0.21913,0.11521 -0.36809,0.253767 -0.44561,0.415162 l -0.14084,-0.461221 h -1.25615 v 5.2385048 h 1.45624 v -3.761964 c 0.12409,-0.2689918 0.32025,-0.4034878 0.58658,-0.4034878 0.2893,0 0.56362,0.145915 0.82043,0.4382548 l 1.24523,-0.6691828 c -0.34385,-0.653957 -0.86839,-0.980808 -1.57284,-0.980808 z m 3.82185,0 c -0.61957,0 -1.15553,0.203774 -1.60926,0.611577 -0.59521,0.546106 -0.89123,1.3230128 -0.89123,2.3308468 0,0.707628 0.18208,1.292433 0.55017,1.754035 0.4314,0.546105 1.03892,0.819158 1.8209,0.819158 0.64254,0 1.13865,-0.257827 1.49202,-0.773227 0,1.153877 -0.42404,1.730943 -1.26883,1.730943 -0.59597,0 -1.13193,-0.15391 -1.60926,-0.461602 l -0.37482,0.738461 c 0.61615,0.553846 1.34966,0.830959 2.19445,0.830959 0.8137,0 1.44063,-0.234734 1.87952,-0.704076 0.44435,-0.476827 0.66817,-1.15781 0.66677,-2.042567 V 8.5574062 h -1.13865 l -0.11597,0.565266 c 0,-0.07664 -0.11331,-0.192229 -0.34106,-0.346138 -0.34462,-0.238414 -0.76194,-0.357811 -1.25475,-0.357811 z m -21.30663,1.026993 c 0.70459,0 1.078,0.376844 1.11582,1.1307838 h -2.26728 c 0.0856,-0.7539398 0.46997,-1.1307838 1.15146,-1.1307838 z m 11.74356,0 c 0.70382,0 1.07521,0.376844 1.11505,1.1307838 h -2.26588 c 0.0855,-0.7539398 0.46985,-1.1307838 1.15083,-1.1307838 z m -23.37241,0.01129 c 0.7599,0 1.13941,0.5769378 1.13941,1.7306878 0,1.107945 -0.37951,1.661791 -1.13941,1.661791 -0.75902,0 -1.13941,-0.553846 -1.13941,-1.661664 0,-1.153877 0.38039,-1.7308148 1.13941,-1.7308148 z m 5.80466,0 c 0.25884,0 0.48139,0.08501 0.67019,0.25402 0.19413,0.161396 0.3195,0.3689768 0.37342,0.6228708 v 1.465502 c -0.0404,0.284599 -0.17865,0.538366 -0.42062,0.761553 -0.24272,0.215448 -0.50563,0.323172 -0.78667,0.323172 -0.75991,0 -1.13942,-0.573005 -1.13942,-1.719269 0,-0.52314 0.11724,-0.938429 0.35249,-1.2459938 0.23473,-0.307819 0.55156,-0.461855 0.95061,-0.461855 z m 27.44638,0 c 0.25148,0 0.47733,0.08882 0.68225,0.265567 0.21177,0.169389 0.33307,0.3730368 0.36479,0.6113238 v 1.327199 c 0,0.330785 -0.11864,0.618937 -0.35337,0.865344 -0.23524,0.238287 -0.51299,0.357684 -0.83388,0.357684 -0.76726,0 -1.15146,-0.573005 -1.15146,-1.719269 0,-0.52314 0.11724,-0.938429 0.35261,-1.2459938 0.2346,-0.307819 0.54877,-0.461855 0.93906,-0.461855 z m -15.77439,0.01193 c 0.35934,0 0.64051,0.153656 0.84542,0.461475 0.20226,0.3076918 0.30541,0.7267868 0.30541,1.2576668 0,0.538493 -0.10988,0.961775 -0.32964,1.269594 -0.21913,0.307566 -0.51641,0.461475 -0.89059,0.461475 -0.2912,0 -0.54687,-0.09643 -0.76511,-0.288533 -0.21316,-0.192609 -0.3304,-0.430895 -0.35134,-0.715241 v -1.258175 c 0,-0.330658 0.11331,-0.611324 0.33916,-0.8421238 0.23524,-0.230547 0.51705,-0.346138 0.84669,-0.346138 z"
     style="line-height:1.25;-inkscape-font-specification:'Tajawal Bold';font-variant-ligatures:normal;font-variant-caps:normal;font-variant-numeric:normal;font-variant-east-asian:normal;stroke-width:0.126883"
     font-weight="700"
     font-size="17.899px"
     font-family="Tajawal"
     letter-spacing="-0.285"
     word-spacing="0"
     fill="#2185d0"
     id="path3" />
  <g
     paint-order="stroke markers fill"
     id="g5"
     transform="matrix(0.12688331,0,0,0.12688331,-3.5527327,-2.6581908)">
    <path
       style="font-variation-settings:normal;fill:url(#b)"
       d="m 42519.285,-7078.79 a 0.76,0.568 0 0 0 -0.738,0.675 l 33.586,125.888 a 87.182,87.182 0 0 0 39.381,-33.763 l -71.565,-92.52 a 0.76,0.568 0 0 0 -0.664,-0.28 z"
       transform="matrix(0.75692,0,0,0.74393,-32088.397,5317.32)"
       opacity="0.5"
       fill="url(#b)"
       id="path4" />
    <path
       d="M 93.742,20.95 A 65.99,64.857 0 0 0 28,85.807 65.99,64.857 0 0 0 38.076,120.254 L 93.095,50.345 a 1.03,0.756 0 0 1 1.785,0 l 55.022,69.912 A 65.99,64.857 0 0 0 159.98,85.807 65.99,64.857 0 0 0 93.99,20.95 a 65.99,64.857 0 0 0 -0.248,0 z"
       fill="#2185d0"
       id="path5" />
  </g>
</svg>
